
<svg version="1.1" xmlns:xlink="http://www.w3.org/1999/xlink" xmlns="http://www.w3.org/2000/svg">
	<symbol id="lait" viewBox="0 0 100 100">
		<g>
			<g>
				<path style="fill:none;" d="M52.19,6.52c0,0-10.42-0.23-12.11,1.56c-2.07,2.19,2.54,7.73,2.39,10.82c-0.13,2.76-0.29,7.58-1.35,10.22
			c-1.04,2.57-5.56,6.6-6.76,9.34c-2.26,5.2-4.19,17.64-4.35,23.35c-0.2,6.96-2.14,23.79,2.49,28.76
			c3.18,3.42,13.25,2.87,17.26,2.87"/>
			</g>
			<g>
				<path style="fill:none;" d="M45.67,6.52c0,0,10.42-0.23,12.11,1.56c2.07,2.19-2.54,7.73-2.39,10.82c0.13,2.76,0.29,7.58,1.35,10.22
			c1.04,2.57,5.56,6.6,6.76,9.34c2.26,5.2,4.19,17.64,4.35,23.35c0.2,6.96,2.14,23.79-2.49,28.76C62.17,94,52.11,93.45,48.1,93.45"
				/>
			</g>
		</g>
	</symbol>
	<symbol id="oeuf" viewBox="0 0 100 100">
		<path style="fill:none" d="M76.25,57.04C76.16,77.2,64.34,93.59,49.84,93.65c-14.5,0.06-26.18-16.23-26.09-36.39
	c0.05-12.03,4.28-22.71,10.76-29.39c4.38-4.52,9.8-7.2,15.64-7.22C64.65,20.59,76.34,36.88,76.25,57.04z"/>
	</symbol>
</svg>
