
<svg version="1.1" xmlns:xlink="http://www.w3.org/1999/xlink" xmlns="http://www.w3.org/2000/svg">
	<symbol id="biere" viewBox="0 0 100 100">
		<g>
			<g>
				<path style="fill:none;" d="M50.82,5.47c0,0-5.76-0.6-6.33,1.09c-0.39,1.15,2.29,4.57,2.29,4.57L43.11,37.2c0,0-4.43,3.63-5.3,5.95
			c-1.68,4.5-0.86,15.47-0.94,24.21c-0.11,12.39-0.1,20.77-0.1,20.77s-1.26,1-1.48,1.74c-0.31,1.08,0.37,3.46,0.71,3.73
			c3.34,2.61,14.61,2.4,14.61,2.4"/>
			</g>
			<g>
				<path style="fill:none;" d="M49.18,5.47c0,0,5.76-0.6,6.33,1.09c0.39,1.15-2.29,4.57-2.29,4.57l3.66,26.06c0,0,4.43,3.63,5.3,5.95
			c1.68,4.5,0.86,15.47,0.94,24.21c0.11,12.39,0.1,20.77,0.1,20.77s1.26,1,1.48,1.74c0.31,1.08-0.37,3.46-0.71,3.73
			c-3.34,2.61-14.61,2.4-14.61,2.4"/>
			</g>
		</g>
		<path style="fill:none;" d="M36.92,54.4c3.38,2.3,7.93,2.22,12.01,2.48c4.99,0.32,9.62-1.06,14.3-2.8"/>
		<path style="fill:none;" d="M36.77,72.4c3.38,2.3,8.07,3.23,12.16,3.23c4.77,0,9.12-0.56,13.8-2.3"/>
	</symbol>
	<symbol id="champignon" viewBox="0 0 100 100">
		<path style="fill:none;" d="m15.33 34.433c-0.56142-16.293 15.445-30.076 35.748-30.787 20.303-0.71037 37.237 11.927 37.81 28.22 0.57288 16.293-18.252 4.3424-38.566 5.0528-20.314 0.71037-34.419 13.806-34.992-2.4863z"/>
		<g transform="matrix(1.1458 0 0 1.1458 -3.6293 -16.219)">
			<path style="fill:none;" d="m43.07 46.81c0.64 3.08-0.5 6.23-1.69 9.14-3.1 7.54-6.79 15.35-5.84 23.45 0.56 4.75 2.71 9.19 5.4 13.15 1.77 2.61 4.66 3.68 7.79 4"/>
			<path style="fill:none;" d="m56.15 47.17c-0.81 3.04 0.15 6.25 1.18 9.22 2.67 7.7 5.93 15.71 4.53 23.74-0.82 4.71-3.21 9.03-6.12 12.83-1.92 2.51-4.85 3.41-8 3.56"/>
		</g>
	</symbol>
	<symbol id="charcuterie" viewBox="0 0 100 100">
		<ellipse transform="matrix(.96105 -.27638 .31883 .94781 0 0)" cx="-3.4149" cy="70.327" rx="11.794" ry="20.404" style="fill:none;"/>
		<path d="m11.15 48.89 56.431-27.116s3.9285-1.8728 8.1302-0.47037c5.0307 1.6811 10.231 7.6305 10.806 9.7385 0.55583 2.0644 3.1277 9.1287 0.75366 14.381-2.8733 6.35-5.6902 7.4127-5.6902 7.4127l-54.97 33.736" style="fill:none;"/>
		<path d="m81.843 25.02c0-2.0181-0.35692-4.2367 0.07191-6.1665 0.2294-1.4579 0.85564-2.5681 2.0214-3.1685 1.3622-0.60541 3.2003-0.75412 4.5246 0.20446 1.009 0.73154 1.4883 2.182 1.4631 3.4811-0.02522 1.2991-0.46667 2.51-0.89551 3.6829 1.0343-0.63064 2.6247-0.90267 3.5833 0.03068 0.58019 0.55496 1.0813 1.7705 1.1822 2.5904 0.27748 2.2072-0.37625 4.1142-1.8015 5.4764-1.3874 1.3117-3.4938 1.0973-5.3731 0.80722" style="fill:none;"/>
		<ellipse transform="matrix(.96236 -.27176 .31365 .94954 0 0)" cx="-8.0016" cy="60.078" rx=".75836" ry=".83349" style="fill:none;"/>
		<ellipse transform="matrix(.96236 -.27176 .31365 .94954 0 0)" cx="1.2259" cy="61.139" rx=".75836" ry=".83349" style="fill:none;"/>
		<ellipse cx="22.603" cy="77.881" rx=".82903" ry=".76653" style="fill:none;"/>
		<ellipse cx="18.559" cy="67.442" rx=".76309" ry=".70556" style="fill:none;"/>
	</symbol>
	<symbol id="farine" viewBox="0 0 100 100">
		<path d="m64.54 85.186s-12.88-15.71-24.94-19.63c-1.49-0.3-2.8-1.45-3.4-2.97s-0.46-3.35 0.37-4.74c0.37-0.62 0.89-1.17 1.54-1.37 1.14-0.36 2.5686 0.28036 3.13 1.4 1.7006 3.3915 1.9027 4.9891 2.1581 9.5917-1.19-0.55-3.8381-1.3417-5.1081-1.5817s-2.64-0.16-3.78 0.53c-1.06 0.64-1.82 1.74-2.41 2.89-0.41 0.81-0.76 1.76-0.49 2.64 0.38 1.25 1.79 1.7 3 1.77 0.85 0.05 1.73-0.01 2.5-0.39 0.86-0.43 1.52-1.23 2.15-2.01 1.21-1.51 3.2512-2.6317 4.9712-3.6017" style="fill:none;"/><path d="m46.752 68.987c-1.49-0.3-2.6923-1.8364-3.2923-3.3564s-0.51413-3.5277 0.31587-4.9177c0.37-0.62 0.89-1.17 1.54-1.37 1.14-0.36 2.35 0.42 3.13 1.4 1.73 2.2 2.03 5.6 0.72 9.36-1.19-0.55-2.4-1.11-3.67-1.35s-2.64-0.16-3.78 0.53c-1.06 0.64-1.82 1.74-2.41 2.89-0.41 0.81-0.76 1.76-0.49 2.64 0.38 1.25 1.79 1.7 3 1.77 0.85 0.05 1.1771-0.33332 2.0059-1.0207 0.61612-0.74703 1.0664-1.2183 1.6964-1.9983 1.21-1.51 2.4536-1.7161 3.6456-3.1462" style="fill:none;"/><path d="m52.398 73.122c-1.4247-0.52955-2.5604-2.1194-2.591-3.7532-0.02965-1.5823 0.32714-3.4623 0.84382-4.8901 0.4625-0.55444 1.0622-1.0163 1.7355-1.112 1.1823-0.1771 2.2553 0.7827 2.8722 1.8727 1.3643 2.4437 1.1283 5.8487-0.75412 9.3573-1.0892-0.72951-2.1966-1.472-3.4134-1.9079-1.2168-0.43585-2.5824-0.5713-3.8164-0.06827-1.1471 0.46617-2.0699 1.4336-2.8327 2.4771-0.53175 0.73583-1.0261 1.6193-0.89723 2.5307 0.17964 1.2941 1.5018 1.9593 2.6859 2.2178 0.83169 0.18245 1.7102 0.26094 2.5302 0.0062 0.91671-0.29007 1.6938-0.97689 2.4381-1.6486 1.4315-1.302 1.4034-2.6077 3.2541-3.2965" style="fill:none;"/>
		<path d="m21.35 90.31c-9.69-6.73-3.95-42.04-3.95-42.04h64.3s6.43 35.1-3.95 42.04c-11.79 7.89-44.52 8.25-56.4 0z" style="fill:none;"/>
		<path d="m17.61 47.94s-5.75-1.24-5.79-1.35c-1.44-3.83-0.55-14.48-0.55-14.48s23.841 2.3276 35.802 2.4151c13.822 0.10114 41.408-2.1851 41.408-2.1851s1.69 12.39-1.02 15.12l-6.06 0.79z" style="fill:none;"/>
		<path d="m21.92 33.02c8.05-7.07 13.33-13.88 21.38-20.95 0.32-0.28 0.66-0.57 1.08-0.66 0.53-0.11 1.06 0.13 1.54 0.35l4.2 1.98c2.35 1.11 4.7 2.22 6.86 3.66 2.3 1.53 4.33 3.41 6.51 5.11 2.22 1.73 4.58 3.27 6.97 4.76 2.76 1.72 5.18 4.31 6.63 6.04" style="fill:none;"/>
	</symbol>
	<symbol id="fromage" viewBox="0 0 100 100">
		<path style="fill:none;" d="m63.835 64.408a43.094 27.404 0 0 1-53.273-13.558 43.094 27.404 0 0 1 15.135-35.197 43.094 27.404 0 0 1 56.709 5.5663 43.094 27.404 0 0 1-2.2589 36.46l-31.001-19.035z"/>
		<path style="fill:none;" d="m63.637 86.134c-4.4796 1.0168-9.3018 1.5757-14.328 1.5878-23.736 0.05721-43.076-12.102-43.256-27.196"/>
		<path style="fill:none;" d="m92.26 60.463c0 7.3771-4.585 14.075-12.044 19.003"/>
		<line style="fill:none;" x1="64.049" x2="64.049" y1="86.688" y2="64.675"/>
		<line style="fill:none;" x1="80.21" x2="80.21" y1="79.299" y2="57.616"/>
		<line style="fill:none;" x1="80.21" x2="63.692" y1="79.299" y2="70.539"/>
		<line style="fill:none;" x1="6.0693" x2="6.0777" y1="60.75" y2="38.448"/>
		<line style="fill:none;" x1="92.247" x2="92.366" y1="60.469" y2="38.869"/>
	</symbol>
	<symbol id="fruit" viewBox="0 0 100 100">
		<path style="fill:none;" d="m11.811 61.565c0-11.722 0.98298-20.055 10.069-26.265 7.7444-5.3007 27.027 3.0224 27.027 3.0224s14.184-7.7628 22.581-5.659c11.915 2.9857 16.343 16.408 16.343 28.911 0 12.485-9.8114 27.285-20.091 32.245-4.1892 2.0211-7.8363 0.87274-10.813-0.94623-2.1221-1.2953-3.298-3.2245-6.8074-3.2245-2.9398 0-4.5107 1.3964-6.4766 2.5723-3.197 1.9108-6.4215 3.7482-10.748 1.8006-11.245-5.0711-21.084-19.265-21.084-32.457z"/>
		<path style="fill:none;" d="m49.261 32.357c-0.1151-2.8565 0.56669-5.8807 1.2379-8.496 1.3821-5.2231 3.6799-10.446 7.9279-13.804 1.204-0.94965 2.5607-1.7382 4.053-2.1113 1.0599-0.27133 2.3741-0.24589 3.0609 0.62745 0.33916 0.43243 0.44939 0.98357 0.50874 1.5262 0.23741 2.2469-0.34764 4.5108-1.3227 6.5373-0.97509 2.0265-2.3402 3.841-3.7392 5.5962-0.91573 1.1447-1.8484 2.2809-2.9253 3.2814-2.6031 2.4165-8.6417 10.802-8.8012 6.8426z"/>
	</symbol>
	<symbol id="lait" viewBox="0 0 100 100">
		<g>
			<g>
				<path style="fill:none;" d="M52.19,6.52c0,0-10.42-0.23-12.11,1.56c-2.07,2.19,2.54,7.73,2.39,10.82c-0.13,2.76-0.29,7.58-1.35,10.22
			c-1.04,2.57-5.56,6.6-6.76,9.34c-2.26,5.2-4.19,17.64-4.35,23.35c-0.2,6.96-2.14,23.79,2.49,28.76
			c3.18,3.42,13.25,2.87,17.26,2.87"/>
			</g>
			<g>
				<path style="fill:none;" d="M45.67,6.52c0,0,10.42-0.23,12.11,1.56c2.07,2.19-2.54,7.73-2.39,10.82c0.13,2.76,0.29,7.58,1.35,10.22
			c1.04,2.57,5.56,6.6,6.76,9.34c2.26,5.2,4.19,17.64,4.35,23.35c0.2,6.96,2.14,23.79-2.49,28.76C62.17,94,52.11,93.45,48.1,93.45"
				/>
			</g>
		</g>
	</symbol>
	<symbol id="legume" viewBox="0 0 100 100">
		<g>
			<g>
				<path style="fill:none;" d="M4.87,93.86c0,0,31.72-61.25,41.15-70.75c8.76-8.82,23.6,6.74,23.6,6.74"/>
			</g>
			<g>
				<path style="fill:none;" d="M4.39,93.38c0,0,61.25-31.72,70.75-41.15c8.82-8.76-6.74-23.6-6.74-23.6"/>
			</g>
		</g>
		<path style="fill:none;" d="M42.54,27.43c3.44,8.72,10.21,16.07,18.62,20.22"/>
		<path style="fill:none;" d="M34.04,41.08c0.18,1.82,0.54,3.64,1.32,5.29c1.57,3.36,4.66,5.71,7.62,7.93"/>
		<path style="fill:none;" d="M67.28,27.58c1.76-1,2.92-3.68,2.29-5.63c-0.32-1-0.98-1.84-1.46-2.76c-0.96-1.86-1.2-4.11-0.65-6.16
	c0.4-1.5,1.31-2.97,2.7-3.57c1.4-0.61,3.28-0.05,3.79,1.41c0.27,0.77,0.19,1.73,0.79,2.25c0.16-1.13-0.08-2.27,0.07-3.4
	c0.19-1.43,1.02-2.77,2.21-3.55c1.19-0.77,2.71-0.97,4.04-0.52c0.31,0.11,0.64,0.27,0.79,0.57c0.13,0.24,0.13,0.53,0.12,0.81
	c-0.02,1.16-0.07,2.32-0.15,3.48c0.71-2.22,2.53-4.05,4.7-4.73c1.04-0.32,2.16-0.39,3.19-0.06c1.03,0.33,1.94,1.07,2.37,2.09
	c0.57,1.36-1.99,3.85-2.78,5.11s-1.96,2.21-3.1,3.13c0.85-0.83,4.38-1.77,5.5-1.43c0.96,0.3,1.88,0.92,2.3,1.86
	c0.64,1.43-0.05,3.21-1.23,4.23s-2.73,1.43-4.23,1.71c-1.42,0.26-2.87,0.42-4.28,0.16c0.49-0.31,1.17,0.02,1.44,0.54
	s0.26,1.14,0.23,1.74c-0.04,0.84-0.09,1.74-0.58,2.42c-0.5,0.7-1.35,1.02-2.17,1.2c-2.06,0.44-4.24,0.16-6.11-0.78
	c-0.23-0.12-0.47-0.25-0.73-0.29c-0.31-0.06-0.63,0.01-0.93,0.1c-1.97,0.57-3.72,1.98-4.72,3.83"/>
	</symbol>
	<symbol id="miel" viewBox="0 0 100 100">

		<path d="m57.5 15.43-34.02-0.4-0.53 11.96s-9.57 5.05-10.63 8.24c-4.4 13.23 14.84 53.77 14.84 53.77l22.922 0.20551" style="fill:none;"/>

		<path d="m42.5 15.43 34.02-0.4 0.53 11.96s9.57 5.05 10.63 8.24c4.4 13.23-14.84 53.77-14.84 53.77l-23.242 0.20668" style="fill:none;"/>


		<line x1="23.2" x2="76.58" y1="26.5" y2="26.88" style="fill:none;"/>
		<polygon points="42.71 65.16 42.71 56.66 50.06 51.4 57.79 56.66 57.79 65.16 50.42 69.19" style="fill:none;"/>
		<polygon points="42.71 65.16 42.71 56.66 50.06 51.4 57.79 56.66 57.79 65.16 50.42 69.19" style="fill:none;"/>
		<polygon points="34.67 51.45 34.67 42.95 42.02 37.69 49.75 42.95 49.75 51.45 42.38 55.48" style="fill:none;"/>
		<polygon points="50.25 51.45 50.25 42.95 57.6 37.69 65.33 42.95 65.33 51.45 57.96 55.48" style="fill:none;"/>
	</symbol>
	<symbol id="oeuf" viewBox="0 0 100 100">
	<path style="fill: none;" d="m84.026 53.553c-0.10525 23.381-14.44 37.559-31.397 37.629-16.957 0.069586-30.637-15.018-30.532-38.399 1.4916-19.122 10.633-45.848 30.894-46.264 16.957-0.069586 31.14 23.653 31.034 47.034z"/>
	</symbol>
	<symbol id="pain" viewBox="0 0 100 100">
		<ellipse transform="matrix(0.7071 -0.7071 0.7071 0.7071 -20.7489 49.0057)" style="fill:none;" cx="48.78" cy="49.55" rx="57" ry="19.5"/>
		<path style="fill:none;" d="M52.97,20.57c5.45,1.86,9.97,6.23,12.02,11.61"/>
		<path style="fill:none;" d="M37.25,33.78c2.58,1.48,5.09,3.14,7.23,5.21c2.14,2.07,3.92,4.58,4.83,7.41"/>
		<path style="fill:none;" d="M22.03,49.57c4.22,2.88,7.54,7.07,9.37,11.84"/>
	</symbol>
	<symbol id="panier" viewBox="0 0 100 100">
		<path style="fill:none;" d="M91,46.78c0,14.93-1.79,31.38-9.85,40.78c-7.29,8.51-20.3,10.72-31.03,10.72c-11.29,0-24.26-2.76-31.66-12.08
	S9.23,61,9.23,46.78"/>
		<path style="fill:none;" d="M24.12,47.07c0-19.33,11.64-35,26-35c14.36,0,26,15.67,26,35"/>
		<path style="fill:none;" d="M15.62,46.78c0-22.81,15.28-41.3,34.12-41.3s34.13,18.49,34.13,41.3"/>
		<line style="fill:none;" x1="9" y1="47.07" x2="91" y2="46.78"/>
	</symbol>
	<symbol id="plant" viewBox="0 0 100 100">
		<path style="fill:none;" d="m54.16 50.4-20.1-0.24c0.39073 17.867 3.5756 23.54 5.0972 43.793l10.594 0.08961"/>
		<path style="fill:none;" d="m45.3 50.4 20.1-0.24c-0.6059 20.978-3.3949 24.85-4.6504 43.868l-11.027 0.01568"/>
		<path style="fill:none;" d="m54.02 50.53 1.3-8.22s16.18-4.05 20.21-7.05c4.74-3.53 14.11-25.26 14.11-25.26s-21.46 3.93-25.93 6.99c-5.26 3.6-8.89 16.03-10.63 22.16-0.99 3.52-1.45 10.89-1.45 10.89"/>
		<path style="fill:none;" d="m49.32 49.98-0.28-7.22s-1.3-13.63-4.69-17.26c-5.79-6.2-33.99-9.42-33.99-9.42s13.1 18.27 17.7 22.42c2.93 2.64 18.48 6.38 18.48 6.38l0.23 5.12"/>
	</symbol>
	<symbol id="poisson" viewBox="0 0 100 100">
		<path style="fill:none" d="m7.25 48.41s15.86-20.34 35.43-20.34 35.43 20.34 35.43 20.34-15.86 20.34-35.43 20.34-35.43-20.34-35.43-20.34z"/>
		<path style="fill:none" d="m78.57 35.61c3.39-4.86 11.56-4.79 11.56-4.79s2.67 7.94-0.72 12.8-11.56 4.79-11.56 4.79-2.67-7.95 0.72-12.8z"/>
		<path style="fill:none" d="m89.8 51.44c4.11 4.23 2.72 12.51 2.72 12.51s-8.05 1.43-12.16-2.8-2.72-12.51-2.72-12.51 8.05-1.43 12.16 2.8z"/>
		<path style="fill:none" d="m27.92 32.33c3.82 10.71 2.65 22.6 0.43 33.78"/>
		<ellipse style="fill:none" cx="22.527" cy="43.251" rx="2.0302" ry="2.1169"/>
	</symbol>
	<symbol id="pot" viewBox="0 0 100 100">
		<path d="m50.383 15.336-22.736-0.22298-0.47 12.07s-5.18 6.86-6.12 10.08c-3.92 13.36 0.53 53.02 0.53 53.02l28.586-0.15943" style="fill:none;"/>
		<path d="m49.91 15.338 22.44-0.29793 0.47 12.07s5.18 6.86 6.12 10.08c3.92 13.36-0.53 53.02-0.53 53.02l-28.956-0.16148" style="fill:none;"/>
		<line x1="27.58" x2="72.58" y1="26.5" y2="26.88" style="fill:none;"/>
		<line x1="21.08" x2="79.08" y1="79.5" y2="79.88" style="fill:none;"/>
		<line x1="20.02" x2="80.02" y1="45.5" y2="45.88" style="fill:none;"/>
	</symbol>
	<symbol id="tisane" viewBox="0 0 100 100">
		<path style="fill:none;" d="M75.37,17.59L71.7,91.96c0,0-31.86,4.87-39.43,1.88c-7.44-2.94-8.62-3.63-8.62-3.63s-2.66-37.58,4.2-48.86
	c2.93-4.82,7.85-6.02,10.67-10.66c1.35-2.22,1.59-12.94,1.59-12.94"/>
		<path style="fill:none;" d="M72.58,10.25c0,0-37.27,0-36.71,0.09c-0.71,0.12-1.21,0.77-1.37,1.45c-0.15,0.68-0.02,1.38,0.14,2.05
	c0.29,1.27,0.68,2.56,1.44,3.64c0.12,0.17,0.26,0.35,0.45,0.45c0.17,0.1,0.38,0.13,0.57,0.16c1.11,0.16,2.3,0.18,3.03-0.25
	c7.47-1.75,15.31-2.03,22.89-0.81c1.95,0.31,3.98,0.77,5.48,2.04c1.44,1.14,3.65,0.91,5.23-0.04c1.18-0.71,2.13-1.79,2.55-3.06
	c0.42-1.27,0.26-2.74-0.52-3.84c-1.2-1.68-3.73-2.23-5.69-1.43c-1.95,0.8-3.27,2.73-3.56,4.75c-0.08,0.57-0.09,1.17,0.15,1.7
	c0.24,0.53,0.77,1.29,1.37,1.29"/>
		<path style="fill:none;" d="M67.05,18.14c0,0-0.07,8.59-1.1,10.71C64.1,32.64,58.88,35.69,56.4,39c-1.14,1.51-2.66,4.69-3.08,6.6
	c-2.55,11.72-2.08,48.74-2.08,48.74"/>
		<ellipse style="fill:none;" cx="36.76" cy="67.26" rx="7.5" ry="8.75"/>
	</symbol>
	<symbol id="savon" viewBox="0 0 100 100">
		<path style="fill:none;" d="M16.33,82.29c-3.32-4.11-3.86-12.74-4.05-21.44s-0.03-17.45,4.05-20.81c6.49-5.34,20.55-5.54,34.25-5.68
	s27.01-0.21,33,5.68c3.44,3.38,3.8,10.94,4.09,18.86c0.34,9.41-0.03,19.33-4.09,23.39c-5.44,5.44-18.51,4.89-31.29,5.51
	C37.13,88.53,22.07,89.38,16.33,82.29z"/>
		<ellipse style="fill:none;" cx="50.49" cy="60.79" rx="28.75" ry="16.25"/>
		<circle style="fill:none;" cx="84.87" cy="18.5" r="11.88"/>
		<circle style="fill:none;" cx="63.57" cy="25" r="5.38"/>
	</symbol>
	<symbol id="viande" viewBox="0 0 100 100">
		<path style="fill:none;" d="M49.98,62.88c8.02-0.21,25.75-5.92,31.95-13.75c10.08-12.72,10.08-29.87,0.01-38.31s-26.41-4.96-36.49,7.77
	c-4.72,5.96-7.95,26.11-8.22,32.74c-1.01,0.37-2.07,0.77-2.77,1.62c-0.81,0.98-0.94,2.5-0.31,3.61c0.63,1.11,1.97,1.73,3.2,1.48
	c-0.11,1.37,0.51,2.78,1.58,3.6c1.07,0.82,2.56,1.03,3.81,0.53c-0.33,1.18-0.21,2.55,0.55,3.49c0.77,0.94,2.54,1.88,3.51,1.15
	c0.25-0.19,1.04-1.14,1.19-1.42C48.8,63.94,49.33,62.89,49.98,62.88z"/>
		<path style="fill:none;" d="M36.42,58.06L17.13,76.54C17.13,76.54,36.14,58.41,36.42,58.06z"/>
		<path style="fill:none;" d="M42.58,63.09L22.83,82.42L42.58,63.09z"/>
		<path style="fill:none;" d="M17.25,76.34c-0.79,1.1-2.39,1.04-3.69,0.76s-1.92-0.78-3.41-0.13c-1.4,0.61-2.5,3.01-2.07,4.51
	c0.45,1.59,0.72,2.88,2.18,3.57c1.46,0.68,3.89,1.21,4.69-0.22c-1.47,1.84-1.29,3.55,0.07,5.47c0.8,1.13,3.04,1.63,4.35,1.28
	c0.9-0.24,2.03-1.05,2.36-1.94s0.17-1.87,0.22-2.83c0.08-1.38-0.3-1.95,0.24-3.22c0.56-1.33,1.13-1.9,1.6-2.14"/>
	</symbol>
	<symbol id="vin" viewBox="0 0 100 100">
		<g transform="matrix(1.0008 0 0 .95898 -.26915 1.6936)">
			<path style="fill:none;" d="m50.33 3.9c0-1.5-4.97 0.14-6.3 1.47-0.57 0.57 1.22 6.42 1.22 6.42s0.33 8.11 0.33 10.77c0 2.2 0.17 5.69-0.88 7.63-1 1.85-5.3 4.32-6.09 6.27-1.13 2.79-0.28 12.26-0.28 12.26l0.1 4.24 0.73 31.58s-1.15 8.29 0.41 9.92c1.63 1.71 10.51 2.23 10.51 2.23"/>
			<path style="fill:none;" d="m49.67 3.9c0-1.5 4.97 0.14 6.3 1.47 0.57 0.57-1.22 6.42-1.22 6.42s-0.33 8.11-0.33 10.77c0 2.2-0.17 5.69 0.88 7.63 1 1.85 5.3 4.32 6.09 6.27 1.13 2.79 0.28 12.26 0.28 12.26l-0.1 4.24-0.73 31.58s1.15 8.29-0.41 9.92c-1.63 1.71-10.51 2.23-10.51 2.23"/>
		</g>
		<path style="fill:none;" d="m38.364 51.618s2.0017 1.2179 4.3437 1.7166c2.342 0.50826 5.0343 0.78637 6.4054 0.83432 1.4813 0.05754 3.9433-0.01918 6.8958-0.57539 2.6422-0.50826 5.2244-1.1508 5.2244-1.1508"/>
		<path style="fill:none;" d="m38.364 67.921s2.0017 1.2179 4.3437 1.7166c2.342 0.50826 5.0343 0.78637 6.4054 0.83432 1.4813 0.05754 3.9433-0.01918 6.8958-0.57539 2.6422-0.50826 5.2244-1.1508 5.2244-1.1508"/>
	</symbol>
</svg>
