<?xml version="1.0" ?><!DOCTYPE svg  PUBLIC '-//W3C//DTD SVG 1.1//EN'  'http://www.w3.org/Graphics/SVG/1.1/DTD/svg11.dtd'><svg height="128px" id="New" style="enable-background:new 0 0 128 128;" version="1.1" viewBox="0 0 128 128" width="128px" xml:space="preserve" xmlns="http://www.w3.org/2000/svg" xmlns:xlink="http://www.w3.org/1999/xlink"><g><line style="fill:none;stroke:#202020;stroke-width:2;stroke-linecap:round;stroke-linejoin:round;stroke-miterlimit:10;" x1="107" x2="88" y1="70" y2="77"/><line style="fill:none;stroke:#202020;stroke-width:2;stroke-linecap:round;stroke-linejoin:round;stroke-miterlimit:10;" x1="118.998" x2="75" y1="94.207" y2="115"/><polyline points="   75,115 9,84 9,78  " style="fill:none;stroke:#202020;stroke-width:2;stroke-linecap:round;stroke-linejoin:round;stroke-miterlimit:10;"/><line style="fill:none;stroke:#202020;stroke-width:2;stroke-linecap:round;stroke-linejoin:round;stroke-miterlimit:10;" x1="75" x2="9" y1="79" y2="54"/><line style="fill:none;stroke:#202020;stroke-width:2;stroke-linecap:round;stroke-linejoin:round;stroke-miterlimit:10;" x1="76.415" x2="76.41" y1="108.098" y2="108.103"/><polyline points="   88,102 88,58 107,52 107,93  " style="fill:none;stroke:#202020;stroke-width:2;stroke-linecap:round;stroke-linejoin:round;stroke-miterlimit:10;"/><path d="   M75,63c0-9.164,2.143-13.98,5.623-18.586c2.373-3.147,5.232-5.666,8.323-7.489c13.154-7.788,27.57-1.994,30.054,11.56   c0,16.533,0,24.091,0,39.515l-44,21c0,0,0.006-45.969,0.008-45.969" style="fill:none;stroke:#202020;stroke-width:2;stroke-linecap:round;stroke-linejoin:round;stroke-miterlimit:10;"/><path d="   M39.065,14.555c0-0.005-0.005,0-0.005,0C27.622,9.07,9,18.305,9,38.919V40v38l66,31" style="fill:none;stroke:#202020;stroke-width:2;stroke-linecap:round;stroke-linejoin:round;stroke-miterlimit:10;"/><path d="   M63.261,21.605c-3.674-0.269-7.894,0.646-11.88,3.001c-2.708,1.605-5.218,3.812-7.298,6.564C41.029,35.211,39,37.951,39,48   l0.159,43" style="fill:none;stroke:#202020;stroke-width:2;stroke-linecap:round;stroke-linejoin:round;stroke-miterlimit:10;"/><path d="   M79.544,26.347c-4.289-0.467-8.743,0.73-12.5,2.949c-2.709,1.605-5.212,3.812-7.292,6.564C55.853,41.019,55,49,55,49v50" style="fill:none;stroke:#202020;stroke-width:2;stroke-linecap:round;stroke-linejoin:round;stroke-miterlimit:10;"/><path d="   M22,83c0,0-0.073-42.874,0-44c0.283-4.378,1.632-9.36,4.688-13.401c2.078-2.752,4.583-4.959,7.291-6.564   c3.322-1.961,6.827-2.935,10.043-3.038" style="fill:none;stroke:#202020;stroke-width:2;stroke-linecap:round;stroke-linejoin:round;stroke-miterlimit:10;"/><line style="fill:none;stroke:#202020;stroke-width:2;stroke-linecap:round;stroke-linejoin:round;stroke-miterlimit:10;" x1="39.061" x2="106.485" y1="14.555" y2="34.192"/><line style="fill:none;stroke:#202020;stroke-width:2;stroke-linecap:round;stroke-linejoin:round;stroke-miterlimit:10;" x1="118.998" x2="118.998" y1="94.207" y2="87.979"/><polyline points="   75.006,115 75.006,108.763 75.006,108.098  " style="fill:none;stroke:#202020;stroke-width:2;stroke-linecap:round;stroke-linejoin:round;stroke-miterlimit:10;"/></g></svg>