<svg width="16mm" height="16mm" version="1.1" viewBox="0 0 16 16" xmlns="http://www.w3.org/2000/svg">
	<path d="m14.5 13.5s-0.03022-1.3121 0-5.0547c0.022689-2.8101-2.1621-4.4385-4.7808-4.9471-0.57478-0.11163-1.1706-0.15742-1.7651-0.15056-3.2184 0.037169-6.4219 1.7449-6.4542 5.0977-0.036156 3.7678 0 5.0547 0 5.0547h-1.498s-0.0044009-1.1084 0-5.0547c0.0047698-4.2885 4.0019-6.7301 7.9877-6.4195-0.017045 0.43611-0.045109 1.3192-0.045109 1.3192 0.57089-0.014194 1.3532 0.044861 2.1786 0.23277 0 0 0.15218-0.77937 0.26515-1.2746 0.01671-0.073249 2.1782 0.65581 2.1289 0.75484-0.28478 0.57167-0.62989 1.1884-0.62989 1.1884 0.49587 0.28714 0.93888 0.55642 1.43 1.0853 0 0 0.79877-0.56406 1.2523-0.89212 0.09397-0.067977 0.99848 1.6622 0.88029 1.7135-0.46461 0.20145-1.2592 0.55084-1.2592 0.55084 0.19911 0.50676 0.30292 1.0588 0.31101 1.6563 0 0 0.69376-0.096286 1.3822-0.15179 0.06712-0.00541 0.11672 1.9167 0.02891 1.9204-0.38789 0.01667-1.4227 0.02608-1.4227 0.02608l-0.0017 1.8706s1.1501 0.01682 1.4512 0.02519c0.03572 9.93e-4 0.05601 1.4497 0.0055 1.4507-0.50754 0.010062-1.4452-0.001398-1.4452-0.001398z" fill="#4d4d4d" stroke-width="0"/>
</svg>
